<svg width="22" height="26" viewBox="0 0 22 26" fill="none" xmlns="http://www.w3.org/2000/svg">
<path d="M21.3394 0C21.334 0 21.3287 6.59223e-05 21.3233 0.000263689H2.98114C2.6899 0.000263689 2.45376 0.236397 2.45376 0.527642V1.85663L0.381169 3.17508C0.229811 3.26961 0.136531 3.43435 0.133301 3.6128V25.4726C0.133301 25.7639 0.369434 26 0.660679 26H18.1591C18.3445 25.997 18.5147 25.8969 18.6074 25.7363L19.9574 23.4739H21.3392C21.6304 23.4739 21.8665 23.2377 21.8665 22.9465V0.527642C21.8667 0.236331 21.6307 0.000131845 21.3394 0ZM1.18806 24.9505V4.14545H17.6317L17.637 24.9505H1.18806ZM17.4049 1.73534C17.1478 1.8509 17.027 2.14821 17.1307 2.41038L17.4049 3.0907H2.47486L3.26593 2.58969C3.41682 2.49285 3.50819 2.326 3.50852 2.14669V1.05502H18.9027L17.4049 1.73534ZM20.796 22.4402L19.641 22.4191C19.4537 22.4202 19.2811 22.5206 19.1875 22.6828L18.6865 23.5477V3.61808C18.6866 3.5513 18.6741 3.48505 18.6495 3.42295L18.2804 2.49476L20.796 1.34508V22.4402Z" fill="black"/>
<path d="M13.9929 6.01229H11.9994C11.7081 6.01229 11.472 6.24842 11.472 6.53967C11.472 6.83091 11.7081 7.06705 11.9994 7.06705H12.4687V10.7112C12.5389 12.3991 11.2274 13.8242 9.53955 13.8944C7.85168 13.9645 6.42657 12.653 6.35643 10.9652C6.35293 10.8805 6.35293 10.7958 6.35643 10.7112V7.06698H6.82579C7.11704 7.06698 7.35317 6.83085 7.35317 6.5396C7.35317 6.24836 7.11704 6.01222 6.82579 6.01222H4.8323C4.54106 6.01222 4.30493 6.24836 4.30493 6.5396C4.30493 6.83085 4.54106 7.06698 4.8323 7.06698H5.30167V10.7112C5.22032 12.9815 6.99495 14.888 9.26531 14.9694C11.5357 15.0507 13.4421 13.2761 13.5235 11.0057C13.527 10.9076 13.527 10.8093 13.5235 10.7112V7.06698H13.9929C14.2841 7.06698 14.5202 6.83085 14.5202 6.5396C14.5202 6.24836 14.2841 6.01229 13.9929 6.01229Z" fill="black"/>
</svg>
