<svg width="94" height="25" viewBox="0 0 94 25" fill="none" xmlns="http://www.w3.org/2000/svg">
<path d="M17.054 9.39773L13.8227 24.7803H12.1173L8.54945 11.5513L4.95913 24.7803H3.25373L0 9.39773H1.79516L4.19619 22.4069L7.65187 9.39773H9.40216L12.8578 22.4069L15.2589 9.39773H17.054Z" fill="white"/>
<path d="M28.0909 19.9018H19.923C20.0127 21.1177 20.3643 22.0553 20.9776 22.7146C21.6059 23.3738 22.4511 23.7035 23.5133 23.7035C24.1865 23.7035 24.7998 23.5643 25.3533 23.2859C25.9068 22.9929 26.3631 22.5901 26.7221 22.0773L27.6421 22.9343C27.2083 23.5936 26.6249 24.1063 25.8919 24.4726C25.1738 24.8242 24.366 25 23.4684 25C21.8677 25 20.6111 24.5019 19.6986 23.5057C18.801 22.4948 18.3522 21.0958 18.3522 19.3085C18.3522 17.5212 18.7935 16.1221 19.6761 15.1112C20.5737 14.0857 21.8079 13.573 23.3786 13.573C24.8596 13.573 26.0115 14.0638 26.8343 15.0453C27.6721 16.0269 28.0909 17.3966 28.0909 19.1546V19.9018ZM26.6548 18.5393C26.6548 17.3966 26.3556 16.4957 25.7572 15.8364C25.1588 15.1625 24.351 14.8256 23.3338 14.8256C22.3165 14.8256 21.5087 15.1625 20.9103 15.8364C20.3269 16.5103 19.9978 17.4699 19.923 18.7151H26.6548V18.5393Z" fill="white"/>
<path d="M33.9992 25C33.2063 25 32.4808 24.8389 31.8226 24.5166C31.1793 24.1943 30.7155 23.7694 30.4313 23.242L31.4635 22.5388C31.7328 22.949 32.0918 23.264 32.5406 23.4837C32.9894 23.6888 33.498 23.7914 34.0665 23.7914C34.7397 23.7914 35.2932 23.6009 35.727 23.22C36.1609 22.8245 36.3778 22.3264 36.3778 21.7257C36.3778 21.2423 36.1983 20.8394 35.8392 20.5171C35.4952 20.1801 34.8893 19.8505 34.0216 19.5282C32.78 19.0741 31.9048 18.6053 31.3962 18.1218C30.9025 17.6384 30.6557 17.0377 30.6557 16.3199C30.6557 15.4995 30.9848 14.8402 31.643 14.3421C32.3013 13.8294 33.1764 13.573 34.2685 13.573C34.9716 13.573 35.6148 13.7268 36.1983 14.0345C36.7966 14.3421 37.238 14.7596 37.5222 15.287L36.5349 15.9902C36.0262 15.1845 35.2633 14.7816 34.246 14.7816C33.6476 14.7816 33.154 14.9208 32.765 15.1991C32.391 15.4775 32.204 15.8364 32.204 16.2759C32.204 16.7008 32.391 17.067 32.765 17.3747C33.139 17.6677 33.8346 17.9973 34.8519 18.3635C35.9589 18.7884 36.7518 19.2572 37.2305 19.7699C37.7092 20.2827 37.9485 20.92 37.9485 21.6818C37.9485 22.678 37.5895 23.4837 36.8714 24.099C36.1534 24.6997 35.196 25 33.9992 25Z" fill="white"/>
<path d="M44.2581 25C43.3007 25 42.5602 24.707 42.0366 24.121C41.513 23.5203 41.2512 22.678 41.2512 21.5939V15.0014H39.2316V13.7927H41.2512V10.8261L42.7098 10.3646H42.7995V13.7927H45.9635V15.0014H42.7995V21.3961C42.7995 22.2165 42.9416 22.8171 43.2259 23.198C43.5101 23.5643 43.9589 23.7474 44.5722 23.7474C45.1706 23.7474 45.6718 23.6595 46.0757 23.4837L46.2103 24.6484C45.7166 24.8828 45.0659 25 44.2581 25Z" fill="white"/>
<path d="M55.0594 9.39773H56.7199V23.4178H64.3718V24.7803H55.0594V9.39773Z" fill="white"/>
<path d="M68.0767 11.6612C67.7177 11.6612 67.426 11.5586 67.2016 11.3535C66.9922 11.1484 66.8875 10.8774 66.8875 10.5404C66.8875 10.1888 66.9922 9.91048 67.2016 9.70538C67.426 9.50028 67.7177 9.39773 68.0767 9.39773C68.4358 9.39773 68.72 9.50028 68.9294 9.70538C69.1538 9.91048 69.266 10.1888 69.266 10.5404C69.266 10.8774 69.1538 11.1484 68.9294 11.3535C68.72 11.5586 68.4358 11.6612 68.0767 11.6612ZM67.2914 13.7927H68.8621V24.7803H67.2914V13.7927Z" fill="white"/>
<path d="M72.4149 16.5176C72.4149 15.2284 72.3925 14.3201 72.3476 13.7927H73.7613C73.8211 14.2908 73.8511 14.9867 73.8511 15.8804H73.9184C74.2475 15.1772 74.7636 14.6205 75.4667 14.2103C76.1698 13.7854 76.9402 13.573 77.778 13.573C79.0795 13.573 80.0593 13.9905 80.7176 14.8256C81.3758 15.6606 81.7049 16.8985 81.7049 18.5393V24.7803H80.1566V18.5174C80.1566 17.2721 79.9397 16.3492 79.5058 15.7485C79.072 15.1332 78.4138 14.8256 77.5311 14.8256C76.858 14.8256 76.2521 15.0014 75.7135 15.353C75.175 15.6899 74.7486 16.1587 74.4345 16.7594C74.1353 17.36 73.9857 18.0339 73.9857 18.7811V24.7803H72.4149V16.5176Z" fill="white"/>
<path d="M94 19.9018H85.832C85.9218 21.1177 86.2733 22.0553 86.8867 22.7146C87.515 23.3738 88.3602 23.7035 89.4223 23.7035C90.0955 23.7035 90.7089 23.5643 91.2624 23.2859C91.8159 22.9929 92.2722 22.5901 92.6312 22.0773L93.5512 22.9343C93.1174 23.5936 92.534 24.1063 91.8009 24.4726C91.0829 24.8242 90.275 25 89.3775 25C87.7768 25 86.5202 24.5019 85.6076 23.5057C84.71 22.4948 84.2612 21.0958 84.2612 19.3085C84.2612 17.5212 84.7026 16.1221 85.5852 15.1112C86.4828 14.0857 87.7169 13.573 89.2877 13.573C90.7687 13.573 91.9206 14.0638 92.7434 15.0453C93.5811 16.0269 94 17.3966 94 19.1546V19.9018ZM92.5639 18.5393C92.5639 17.3966 92.2647 16.4957 91.6663 15.8364C91.0679 15.1625 90.2601 14.8256 89.2428 14.8256C88.2256 14.8256 87.4177 15.1625 86.8194 15.8364C86.2359 16.5103 85.9068 17.4699 85.832 18.7151H92.5639V18.5393Z" fill="white"/>
<path d="M67.8278 7.99165C67.8278 7.99165 67.4752 8.56808 67.1322 9.46706C66.8269 10.2674 66.9358 11.0085 67.6759 10.8988C68.4032 10.7911 67.3965 10.059 67.6387 9.46706C67.9909 8.60375 68.4725 8.22276 68.5264 8.23034C69.5873 8.39238 71.7689 8.51344 73.1921 7.13593C75.1315 5.2579 73.8973 2.43156 75.9026 1.11477C72.6411 -0.956794 68.8287 0.122059 67.4143 2.20273C66.0643 4.18702 66.9714 6.45098 67.5097 7.45963C67.5097 7.45963 70.107 3.44552 71.3853 3.07894C69.8652 4.52399 67.8278 7.99165 67.8278 7.99165Z" fill="white"/>
</svg>
